<svg xmlns="http://www.w3.org/2000/svg" viewBox="0 0 496 512">
  <path fill="white" d="M165.9 397.4c0 2-2.3 3.6-5.2 3.6-3 0-5.2-1.6-5.2-3.6 0-2 2.3-3.6 5.2-3.6 2.9 0 5.2 1.6 5.2 3.6zm-33.1-6.2c-.7 2.3 1.5 4.8 4.9 5.6 3.4.8 6.9-.3 7.6-2.6.7-2.3-1.5-4.8-4.9-5.6-3.4-.8-6.9.3-7.6 2.6zm44.2-1.7c-2.9 1.8-2.5 5.7.9 8.6 3.3 2.9 7.8 3.7 10.7 1.9 2.9-1.8 2.5-5.7-.9-8.6-3.3-2.9-7.8-3.7-10.7-1.9zm38.5 1c-1.2 2.7.9 5.8 4.6 6.9 3.7 1.1 7.8-.3 9-3 .9-2.7-.9-5.8-4.6-6.9-3.7-1.1-7.8.3-9 3zm44.2 2.6c.2 3-2.6 5.6-6.3 5.9-3.7.3-6.9-1.8-7.1-4.8-.2-3 2.6-5.6 6.3-5.9 3.7-.3 6.9 1.8 7.1 4.8zm-94.1-20.6c-1.1 2.9 1.7 6.2 6.2 7.4 4.5 1.3 9.2-.1 10.3-3 .8-2.9-1.7-6.2-6.2-7.4-4.5-1.3-9.1.1-10.3 3zM248 8C111 8 0 119 0 256c0 110.3 71.4 203.9 170.6 237.2 12.5 2.3 17.1-5.4 17.1-12 0-6-0.2-21.8-0.3-42.8-69.4 15.1-84-33.4-84-33.4-11.4-29-27.9-36.7-27.9-36.7-22.8-15.6 1.7-15.3 1.7-15.3 25.2 1.8 38.5 25.8 38.5 25.8 22.4 38.4 58.7 27.3 73 20.9 2.3-16.2 8.8-27.3 16-33.6-55.4-6.3-113.7-27.7-113.7-123.2 0-27.2 9.7-49.4 25.6-66.9-2.6-6.3-11.1-31.8 2.4-66.3 0 0 20.9-6.7 68.4 25.5 19.9-5.5 41.2-8.2 62.4-8.3 21.1.1 42.5 2.8 62.4 8.3 47.5-32.2 68.3-25.5 68.3-25.5 13.5 34.5 5 60 2.4 66.3 15.9 17.5 25.6 39.7 25.6 66.9 0 95.8-58.4 116.8-113.9 123 9 7.7 17.1 22.9 17.1 46.1 0 33.3-.3 60.1-.3 68.3 0 6.7 4.5 14.4 17.2 12C424.6 459.9 496 366.3 496 256 496 119 385 8 248 8z"/>
</svg>
